<svg width="34" height="34" viewBox="0 0 34 34" fill="none" xmlns="http://www.w3.org/2000/svg">
<path d="M26.791 33.9997H7.16762C6.0759 33.9994 4.99864 33.7515 4.01803 33.2747C3.03741 32.7979 2.17934 32.1048 1.50926 31.2484C0.839178 30.392 0.374793 29.3948 0.151523 28.333C-0.0717462 27.2711 -0.0480019 26.1726 0.220945 25.1212L4.19795 8.9893C4.26958 8.70088 4.43846 8.44553 4.67649 8.26578C4.91452 8.08603 5.20733 7.99271 5.50618 8.00136H27.419C27.7075 7.98823 27.9924 8.07038 28.229 8.23498C28.4657 8.39959 28.6408 8.63739 28.7272 8.9113L33.6723 24.7183C34.0104 25.7919 34.0882 26.9297 33.8995 28.0389C33.7108 29.1481 33.2609 30.1973 32.5865 31.1009C31.9231 32.0082 31.0509 32.7448 30.0427 33.249C29.0346 33.7533 27.9196 34.0107 26.791 33.9997ZM6.48735 10.6012L2.70657 25.7452C2.53821 26.4134 2.52472 27.1108 2.66712 27.7849C2.80951 28.459 3.10408 29.0921 3.52861 29.6366C3.95313 30.1811 4.49654 30.6227 5.11784 30.9282C5.73914 31.2336 6.42213 31.3949 7.11529 31.3998H26.7387C27.4506 31.401 28.1527 31.2342 28.7872 30.9134C29.4217 30.5925 29.9706 30.1266 30.3886 29.554C30.8187 28.9781 31.1058 28.3093 31.2263 27.6022C31.3468 26.8951 31.2973 26.1697 31.082 25.4852L26.477 10.6012H6.48735Z" fill="#F3F3F3"/>
<path d="M22.6 14C22.2287 14 21.8726 13.8946 21.61 13.7071C21.3475 13.5196 21.2 13.2652 21.2 13V5C21.2 4.20435 20.7575 3.44129 19.9698 2.87868C19.1822 2.31607 18.1139 2 17 2C15.8861 2 14.8178 2.31607 14.0302 2.87868C13.2425 3.44129 12.8 4.20435 12.8 5V13C12.8 13.2652 12.6525 13.5196 12.3899 13.7071C12.1274 13.8946 11.7713 14 11.4 14C11.0287 14 10.6726 13.8946 10.4101 13.7071C10.1475 13.5196 10 13.2652 10 13V5C10 3.67392 10.7375 2.40215 12.0503 1.46447C13.363 0.526784 15.1435 0 17 0C18.8565 0 20.637 0.526784 21.9497 1.46447C23.2625 2.40215 24 3.67392 24 5V13C24 13.2652 23.8525 13.5196 23.59 13.7071C23.3274 13.8946 22.9713 14 22.6 14Z" fill="#F3F3F3"/>
<path d="M23.8034 20.4241C23.2365 20.2185 22.2159 19.9359 21.082 20.013C19.608 20.0901 18.7009 21.0922 19.23 21.8374C19.0032 21.9658 18.8142 22.12 18.5875 22.2999C17.1134 23.5589 17 25.0493 17 25.0493L17.7181 26C17.7181 26 17.8693 24.1756 18.9654 22.8909C19.1922 22.6339 19.419 22.4027 19.6458 22.1971C20.6663 22.8652 21.9892 22.2228 22.6695 21.6832C23.2365 21.2464 23.6144 20.9894 23.879 20.8095C24.068 20.7068 24.0302 20.5012 23.8034 20.4241Z" fill="#F3F3F3"/>
<path d="M21.0027 20.6458C22.0759 20.5828 23.0724 20.8662 23.6857 21.1182C23.7623 21.0552 23.8006 21.0237 23.8773 20.9922C24.0689 20.8662 24.0306 20.6143 23.8006 20.5198C23.2257 20.2679 22.1909 19.9214 21.0411 20.0159C19.6613 20.1104 18.7797 21.1182 19.048 22C19.2014 21.3071 19.9679 20.7088 21.0027 20.6458Z" fill="#F3F3F3"/>
<path d="M18.7069 23.12C18.7931 22.896 18.8966 22.704 19 22.544C18.9483 22.384 18.931 22.192 18.931 22C18.8621 22.128 18.7931 22.256 18.7241 22.448C18.0517 24.016 18 25.872 18 25.872L18.0345 26C18.0862 25.392 18.2586 24.176 18.7069 23.12Z" fill="#F3F3F3"/>
<path opacity="0.15" d="M17.7902 30.4842C19.3312 30.4842 20.5805 30.3758 20.5805 30.2421C20.5805 30.1084 19.3312 30 17.7902 30C16.2492 30 15 30.1084 15 30.2421C15 30.3758 16.2492 30.4842 17.7902 30.4842Z" fill="#45413C"/>
<path d="M17.8415 23.7872C17.2493 22.5948 16.2392 21.652 15.2988 20.9865C15.4033 20.4319 15.5078 18.9345 13.5572 18.2967C11.7459 17.6866 9.9695 18.158 9.2032 18.463C8.99421 18.5462 8.92455 18.7403 9.09871 18.879C9.44703 19.184 10.074 19.7663 10.6313 20.5428C11.6414 21.957 13.7662 22.7889 15.1246 21.347C15.8212 21.9847 16.483 22.8444 16.901 24.0367C18.0505 27.3921 17.4583 28.8063 17.1797 29.3609C17.11 29.5273 17.1797 29.7214 17.3538 29.8046C17.528 29.8878 17.8067 29.9709 18.155 29.9987C18.9213 30.0264 18.9561 29.6105 18.9561 29.6105C18.9561 29.6105 19.3393 26.782 17.8415 23.7872Z" fill="#F3F3F3"/>
<path d="M15 21.5461C15.1866 21.7372 15.4105 21.9283 15.5971 22.1468C16.4181 22.7474 17.2018 23.5392 17.7243 24.4676C18.6946 26.215 18.9558 27.9078 18.9931 29C19.0305 28.099 18.9558 25.9693 17.7243 23.7304C17.0899 22.5563 16.0449 21.6553 15.0373 21C15.0373 21.2184 15.0373 21.4096 15 21.5461Z" fill="#F3F3F3"/>
<path d="M9.35955 19.1937C10.1892 18.9024 11.749 18.5236 13.3089 19.0772C14.5036 19.5142 14.9019 20.3008 14.9682 21C15.0678 20.3299 15.0346 18.9024 13.3089 18.2906C11.6163 17.6787 9.92374 18.174 9.19361 18.4945C8.99449 18.5819 8.92811 18.7858 9.09405 18.9315C9.16042 18.9898 9.25999 19.0772 9.35955 19.1937Z" fill="#F3F3F3"/>
<path d="M20 22C20 22 20.2769 20.9766 22 21.0004L20 22Z" fill="#F3F3F3"/>
<path d="M15 21C14.8714 19.3607 12 19 12 19L15 21Z" fill="#F3F3F3"/>
</svg>